<?xml version="1.0" encoding="UTF-8"?>
<svg id="Layer_1" data-name="Layer 1" xmlns="http://www.w3.org/2000/svg" viewBox="0 0 595.28 480.15">
  <defs>
    <style>
      .cls-1 {
        fill-rule: evenodd;
      }

      .cls-1, .cls-2 {
        fill: #231f20;
      }

      .cls-3 {
        fill: #ff6c0e;
      }

      .cls-4 {
        fill: #b5d334;
      }
    </style>
  </defs>
  <path class="cls-3" d="m368.73,471.21c-5.91,0-11.83-3.05-12.74-9.35l-.02-.12c-.68-6.68-1.32-13.53-1.93-20.95v-.11c-.36-7.83,6.38-12.96,12.91-13.8,8.48-.86,17.08-1.87,25.64-3.03,3.81-.4,7.42.66,10,2.9,2.29,1.99,3.6,4.82,3.7,7.95v.1c-.02,6.89-.05,13.77-.08,20.66v.11c-.3,6.93-6.47,11.21-12.08,12.26-8.03,1.29-16.02,2.39-23.85,3.3-.51.05-1.03.07-1.55.07Zm-6.88-10.14c.56,3.54,4.98,4.45,7.82,4.19,7.66-.89,15.58-1.99,23.45-3.25,3.29-.62,6.98-2.96,7.18-6.64.03-6.84.06-13.69.08-20.53-.06-1.49-.62-2.72-1.68-3.63-1.32-1.15-3.34-1.71-5.4-1.49-8.54,1.15-17.2,2.18-25.67,3.03-3.81.49-7.84,3.34-7.68,7.61.61,7.33,1.23,14.11,1.91,20.7Zm62.87.67c-2.58,0-4.98-.78-6.73-2.23-1.99-1.63-3.08-4.04-3.09-6.78v-.11c.23-6.52.45-13.22.66-20.48v-.1c.41-6.56,5.58-12.37,12.28-13.81,7.36-1.36,14.69-2.81,21.87-4.33l.09-.02c3.14-.56,6.07.19,8.24,2.11,2.18,1.93,3.32,4.88,3.14,8.09v.09c-.61,6.85-1.27,13.56-1.95,19.93v.1c-.81,5.65-5.3,10.59-11.19,12.29-6.92,1.79-13.87,3.47-20.76,5-.86.17-1.72.25-2.55.25Zm-3.91-8.97c.01.96.32,1.68.93,2.18.97.8,2.62,1.09,4.32.75,6.74-1.5,13.63-3.16,20.4-4.91,3.54-1.02,6.39-4.05,6.87-7.37.68-6.31,1.33-12.94,1.93-19.72.07-1.39-.34-2.56-1.16-3.28-.78-.69-1.93-.95-3.23-.73-7.21,1.53-14.57,2.99-21.89,4.33-4.06.88-7.26,4.38-7.53,8.33-.21,7.23-.42,13.91-.65,20.4Z"/>
  <path class="cls-3" d="m512.68,434.83c-1.71,0-2.88-.7-3.52-1.24-1.81-1.5-2.61-4.14-2.14-7.06,1.1-5.97,2.15-12.15,3.12-18.43v-.06c.79-4.41,3.64-10.26,9.13-12.25l.09-.03c4.61-1.48,9.19-3.01,13.6-4.55l.1-.03c2.73-.82,4.49.24,5.31.94,2.18,1.89,2.52,5.33,2.12,7.92-1.08,6.05-2.22,11.97-3.43,17.65-.93,3.95-3.57,8.9-8.25,11.08-4.47,1.91-8.99,3.78-13.53,5.57-.97.35-1.84.49-2.59.49Zm2.74-25.89c-.98,6.32-2.03,12.55-3.13,18.5-.2,1.23.17,1.94.29,2.03.05.02.31.04.8-.14,4.41-1.75,8.89-3.6,13.24-5.45,2.35-1.1,4.42-4,5.21-7.35,1.18-5.57,2.32-11.43,3.37-17.36.21-1.36-.06-2.54-.29-2.92-.06,0-.14.02-.25.05-4.42,1.53-9,3.06-13.61,4.55-3.09,1.15-5.05,4.89-5.62,8.1Z"/>
  <path class="cls-3" d="m318.02,474.27c-3.06,0-6.08-.04-9.05-.1-6.05-.29-13.06-3.51-15.23-10.04l-.04-.11c-1.9-6.59-3.66-13.38-5.37-20.77l-.02-.11c-.6-3.14.11-6.15,2.01-8.5,2.22-2.74,5.96-4.43,10-4.51,8.78.06,17.88-.09,27.09-.45.07,0,.15,0,.22,0,6.77,0,14.1,3.98,15.3,11.68v.11c.88,7.35,1.78,14.15,2.75,20.81v.12c.29,2.66-.45,5.12-2.15,7.12-2.15,2.54-5.8,4.21-9.75,4.45-5.35.2-10.62.29-15.78.29Zm-18.65-11.96c1.31,3.82,5.99,5.76,9.81,5.94,7.77.18,15.98.12,24.32-.19,2.23-.14,4.43-1.07,5.52-2.37.64-.76.9-1.6.8-2.63-.98-6.67-1.87-13.49-2.74-20.85-.72-4.42-5.31-6.72-9.51-6.63-9.23.36-18.41.52-27.21.45-2.21.05-4.32.93-5.44,2.31-.81,1-1.07,2.18-.81,3.61,1.67,7.24,3.39,13.89,5.26,20.34Zm173.77-13.39c-1.89,0-3.61-.59-4.96-1.72-1.94-1.63-2.9-4.21-2.62-7.08.81-6.34,1.57-12.91,2.28-19.64v-.08c.83-6.2,5.31-11.66,10.89-13.28l.09-.03c5.86-1.5,11.74-3.07,17.49-4.69l.1-.03c2.55-.62,4.92-.1,6.69,1.46,2.06,1.82,3.06,4.89,2.67,8.19-.94,6.52-1.94,12.87-2.98,18.93-1.09,5.44-4.94,10.1-9.83,11.95-5.67,1.96-11.37,3.84-17.04,5.61-.95.27-1.88.4-2.77.4Zm.57-27.78c-.71,6.75-1.48,13.36-2.28,19.64-.04.44-.04,1.4.54,1.89.47.39,1.29.46,2.25.19,5.53-1.73,11.18-3.59,16.71-5.5,2.91-1.1,5.36-4.12,6.04-7.48,1.02-5.93,2.01-12.22,2.93-18.61.17-1.44-.26-2.58-.73-3-.11-.1-.42-.36-1.33-.15-5.75,1.62-11.65,3.2-17.52,4.7-3.32.99-6.09,4.48-6.62,8.33Z"/>
  <path class="cls-3" d="m543.95,420.98c-1.19,0-2.02-.48-2.49-.86-1.89-1.53-2.08-4.5-1.63-6.78,1.22-5.56,2.37-11.32,3.44-17.14v-.04c.53-2.58,2.3-8.82,7.43-11.06l.09-.04c3.54-1.37,7.05-2.77,10.43-4.17l.1-.04c2.13-.77,3.53.04,4.18.58,2.4,2.03,1.74,6.53,1.58,7.41-1.1,5.57-2.28,11.05-3.51,16.33-.56,2.24-2.33,7.61-6.77,10.06-3.51,1.79-7.04,3.53-10.56,5.2-.87.38-1.63.52-2.28.52Zm3.83-23.92c-1.08,5.86-2.25,11.66-3.46,17.22-.16.82-.12,1.58-.02,2.02.01,0,.02,0,.03-.01,3.41-1.63,6.9-3.35,10.31-5.08,1.92-1.06,3.62-3.73,4.46-7.09,1.21-5.19,2.38-10.62,3.47-16.1.17-.97.15-2.08.03-2.72-3.29,1.35-6.68,2.71-10.11,4.03-2.55,1.14-4.11,4.73-4.72,7.73Z"/>
  <path class="cls-3" d="m365.89,420.53c-7.47,0-13.47-5.28-14.16-12.62v-.1c-.54-8.95-1.02-18.35-1.45-27.92v-.09c-.11-8.43,6-15.31,14.21-16.01h.1c9.08-.48,18.37-1.05,27.58-1.71h.1c3.65-.13,7.06,1.12,9.65,3.54,2.76,2.58,4.4,6.36,4.52,10.36-.02,9.01-.04,17.92-.06,26.84v.09c-.26,7.39-5.76,13.58-13.1,14.73h-.09c-8.76,1.1-17.59,2.06-26.23,2.87h-.09c-.33.03-.66.04-.98.04Zm-8.26-13.13c.43,4.37,4.22,7.47,8.84,7.2,8.55-.8,17.29-1.75,25.95-2.82,4.5-.72,7.88-4.51,8.05-9.04.02-8.9.04-17.8.06-26.7-.07-2.35-1.03-4.61-2.65-6.12-1.44-1.35-3.28-2.04-5.34-1.96-9.22.66-18.51,1.24-27.59,1.71-5.05.45-8.81,4.74-8.76,10,.43,9.51.91,18.84,1.43,27.74Zm69.99,5.05c-2.73,0-5.26-.92-7.26-2.65-2.52-2.18-3.98-5.5-4.01-9.12v-.09c.18-8.41.34-17.25.49-26.25v-.08c.36-7.96,5.83-14.45,13.02-15.44h.11c7.68-.79,15.43-1.63,23.04-2.53h.11c3.05-.26,5.78.69,7.91,2.7,2.51,2.38,3.96,6.15,3.87,10.1-.42,8.49-.9,16.84-1.42,24.88-.65,7-5.47,12.84-11.73,14.29l-.1.02c-7.34,1.43-14.82,2.79-22.24,4.05h-.1c-.57.09-1.13.13-1.68.13Zm-5.36-11.79c.03,1.91.75,3.61,1.97,4.67,1.12.97,2.58,1.37,4.24,1.15,7.34-1.24,14.73-2.59,21.99-4,3.79-.9,6.71-4.58,7.12-8.98.51-7.93.99-16.25,1.41-24.63.05-2.19-.73-4.36-2.02-5.59-.9-.85-1.99-1.22-3.33-1.12-7.6.9-15.35,1.74-23.02,2.52-4.84.7-7.66,5.55-7.86,9.8-.14,8.98-.31,17.79-.48,26.19Z"/>
  <path class="cls-3" d="m520.43,388.77c-1.47,0-2.82-.48-3.91-1.42-2.43-2.08-3.01-5.86-2.74-8.7.83-7.21,1.58-14.6,2.25-22.02v-.05c.58-5.18,3.32-11.71,9.18-13.08l.12-.03c4.65-.86,9.32-1.75,13.87-2.66l.13-.02c1.93-.28,3.66.23,5,1.49,2.96,2.78,2.67,8.15,2.58,9.19-.73,7-1.55,13.91-2.45,20.6-.36,2.31-1.98,9.86-8.23,12.16l-.11.04c-4.49,1.44-9.13,2.86-13.78,4.24l-.11.03c-.61.15-1.22.23-1.8.23Zm.92-31.62c-.67,7.45-1.42,14.87-2.25,22.06-.17,1.86.33,3.58.9,4.07.08.07.25.22.88.07,4.57-1.35,9.13-2.76,13.55-4.17,2.76-1.05,4.27-4.89,4.73-7.87.88-6.58,1.69-13.45,2.42-20.34.17-1.98-.24-4.15-.92-4.79-.07-.06-.14-.14-.5-.1-4.53.9-9.17,1.79-13.8,2.65-2.88.72-4.61,4.84-5.01,8.41Z"/>
  <path class="cls-3" d="m301.81,423.62c-1.2,0-2.39,0-3.58-.01h-.09c-7.93-.3-14.77-6.03-16.26-13.62l-.02-.1c-1.49-9.18-2.86-18.82-4.06-28.66v-.09c-.39-4.25.87-8.24,3.55-11.24,2.58-2.88,6.24-4.52,10.29-4.6h.1c9.59.11,19.58.1,29.69-.06h.1c8.36.14,15.27,6.61,16.07,15.03v.09c.62,9.67,1.31,19.13,2.07,28.11v.1c.4,7.78-5.37,14.05-13.41,14.59h-.09c-8.26.31-16.43.46-24.34.46Zm-3.49-5.92c8.89.05,18.17-.1,27.57-.44,4.77-.34,8.08-3.84,7.87-8.35-.75-8.99-1.45-18.45-2.06-28.12-.53-5.39-4.92-9.52-10.23-9.64-10.12.15-20.13.17-29.75.06-2.41.06-4.47.97-5.96,2.64-1.56,1.75-2.3,4.13-2.08,6.72,1.19,9.73,2.53,19.26,4.01,28.33.99,4.9,5.45,8.6,10.63,8.81Zm181.03-15.58c-2.03,0-3.91-.68-5.41-1.98-2.33-2.02-3.61-5.41-3.42-9.07.61-7.92,1.17-16.04,1.66-24.23v-.07c.52-6.05,4.24-13.16,11.22-14.45l.12-.02c6.1-.88,12.21-1.8,18.15-2.75l.13-.02c2.46-.28,4.66.42,6.36,2.03,2.68,2.53,3.43,6.73,3.25,9.8-.64,7.73-1.36,15.36-2.15,22.72-.66,5.03-3.67,11.49-10.04,13.4l-.11.03c-5.86,1.52-11.84,2.99-17.78,4.38l-.11.02c-.63.12-1.26.19-1.87.19Zm-1.27-34.88c-.49,8.2-1.05,16.35-1.66,24.21-.09,1.73.46,3.41,1.39,4.22.36.31.98.69,2.22.47,5.86-1.38,11.75-2.83,17.53-4.32,3.38-1.04,5.38-5.09,5.82-8.42.77-7.25,1.49-14.83,2.12-22.45.12-2.03-.47-4.2-1.42-5.09-.29-.28-.7-.55-1.57-.46-5.92.94-12.01,1.87-18.1,2.74-3.71.73-6,5.11-6.34,9.09Z"/>
  <path class="cls-3" d="m553.33,374.7c-1.06,0-2.03-.34-2.83-1.01-2.65-2.22-2.2-7.13-2.09-8.1.9-6.52,1.73-13.21,2.46-19.92v-.04c.38-2.98,1.84-10.09,7.32-11.64l.12-.03c3.59-.81,7.11-1.62,10.47-2.43l.13-.03c1.47-.26,2.86.12,3.89,1.08,2.33,2.16,2.15,6.62,1.97,8.43-.75,6.31-1.59,12.56-2.49,18.63-.54,3.24-2.11,8.89-6.61,10.85l-.1.04c-3.44,1.31-6.98,2.61-10.53,3.88l-.1.03c-.55.17-1.09.25-1.61.25Zm2.1-28.51c-.74,6.75-1.57,13.47-2.47,19.99-.22,1.8.1,3.48.43,3.93.04,0,.1-.02.17-.04,3.48-1.24,6.95-2.52,10.32-3.8,1.79-.81,3.23-3.55,3.87-7.35.9-5.99,1.73-12.19,2.46-18.42.22-2.17-.11-4.01-.47-4.5-3.32.8-6.81,1.61-10.36,2.4-2.29.7-3.56,4.6-3.96,7.77Z"/>
  <g>
    <path class="cls-3" d="m522.01,299.96c.21-3.95,1.85-10.16,6.68-10.48,4.68-.06,9.37-.13,14.05-.21,4.33.17,5.19,6.13,5.12,9.45-.29,7.47-.69,14.94-1.17,22.41-.31,3.71-1.85,9.21-6.07,10.12-4.64.76-9.29,1.48-13.95,2.18-4.72.46-5.86-5.54-5.73-9.09.45-8.12.81-16.25,1.07-24.38h0Z"/>
    <path class="cls-3" d="m526.17,336.13c-1.78,0-3.38-.63-4.67-1.84-2.56-2.41-3.35-6.77-3.24-10.05.45-8.04.8-16.22,1.07-24.37v-.05c.3-5.74,2.88-12.6,9.18-13.02h.14c4.68-.07,9.36-.14,14.04-.22h.07s.07,0,.07,0c5.86.23,7.8,6.71,7.69,12.18-.3,7.56-.69,15.12-1.18,22.53-.22,2.62-1.45,11.11-8.17,12.56l-.14.03c-4.55.74-9.26,1.48-13.98,2.18l-.13.02c-.26.03-.52.04-.77.04Zm-1.48-36.05c-.27,8.18-.63,16.39-1.07,24.41-.09,2.47.57,4.97,1.55,5.9.24.22.55.43,1.19.38,4.65-.7,9.28-1.42,13.76-2.15,2.3-.55,3.62-4.26,3.91-7.72.48-7.31.87-14.82,1.17-22.29.05-2.67-.68-6.52-2.49-6.67-4.63.08-9.25.15-13.88.21-2.73.24-3.96,4.85-4.12,7.92Z"/>
  </g>
  <g>
    <path class="cls-3" d="m477.56,304.92c.22-4.98,2.81-11.39,8.58-11.67,6.18-.02,12.35-.05,18.53-.09,5.21.21,6.97,6.35,6.94,10.66-.25,8.37-.59,16.74-1.01,25.1-.34,4.56-2.63,10.36-7.7,11.24-6.09.78-12.19,1.53-18.29,2.23-5.59.4-7.88-5.56-7.82-10.23.33-9.08.59-18.16.78-27.25h0Z"/>
    <path class="cls-3" d="m484.08,345.37c-2.39,0-4.54-.85-6.27-2.48-2.55-2.4-4.04-6.43-3.98-10.76.33-9.02.59-18.17.78-27.27v-.07c.3-6.73,3.99-14.14,11.4-14.49h.13c6.17-.02,12.34-.05,18.52-.09h.07s.07,0,.07,0c6.78.28,9.82,7.27,9.77,13.64-.25,8.48-.6,16.94-1.02,25.23-.46,6.2-3.77,12.89-10.15,14.01l-.13.02c-6.01.77-12.18,1.52-18.33,2.23h-.13c-.25.03-.49.04-.74.04Zm-3.56-40.35c-.19,9.12-.45,18.29-.78,27.26-.03,2.52.82,5.09,2.13,6.32.68.64,1.47.92,2.47.86,6.07-.7,12.16-1.44,18.11-2.21,3.19-.6,4.93-4.84,5.21-8.54.42-8.18.76-16.61,1.01-24.97.01-2.01-.68-7.42-4.04-7.62-6.13.04-12.25.07-18.38.09-3.9.24-5.55,5.38-5.71,8.81Z"/>
  </g>
  <g>
    <path class="cls-3" d="m557.99,285.68c.18-3.1,1.16-9.03,5.13-9.38,3.51-.08,7.02-.17,10.53-.27,3.54.14,3.81,5.87,3.73,8.4-.31,6.68-.72,13.35-1.22,20.02-.28,3.02-1.27,8.17-4.75,9.08-3.5.69-7,1.35-10.51,2-3.9.48-4.25-5.49-4.11-8.1.5-7.25.89-14.5,1.19-21.76h0Z"/>
    <path class="cls-3" d="m560.47,317.86c-1.31,0-2.49-.46-3.44-1.35-2.58-2.4-2.62-7.22-2.52-9.19.49-7.17.89-14.46,1.19-21.73v-.04c.4-6.96,3.03-11.17,7.22-11.53h.14c3.51-.09,7.01-.18,10.52-.27h.08s.08,0,.08,0c1.88.07,6.22,1.27,5.93,10.76-.32,6.77-.73,13.52-1.23,20.12-.57,6.25-2.86,10.19-6.45,11.12l-.13.03c-3.44.68-6.99,1.35-10.53,2l-.13.02c-.24.03-.48.04-.72.04Zm-.19-32.06c-.3,7.3-.71,14.64-1.2,21.8-.13,2.46.33,4.87,1.07,5.56.07.07.16.14.42.12,3.47-.64,6.94-1.3,10.31-1.96,1.49-.44,2.63-3.13,2.99-7.06.49-6.52.9-13.23,1.21-19.92.1-3.47-.68-5.89-1.49-6-3.45.09-6.89.18-10.34.26-1.77.22-2.79,3.87-2.98,7.2Z"/>
  </g>
  <path class="cls-3" d="m454.93,281.5h-.06c-7.92-.25-15.84-.5-23.77-.76h-.12c-8.49-.62-13.15-8.66-13.35-16.28,0-10.41-.04-20.82-.09-31.01v-.08c.1-4.55,1.92-8.86,4.87-11.52,2.42-2.19,5.47-3.2,8.79-2.93h.12c7.89.96,15.84,1.96,23.66,2.98l.12.02c7.84,1.34,11.7,9.21,11.96,15.96.13,9.62.21,19.3.22,28.84-.17,7.32-4.45,14.7-12.29,14.78h-.06Zm-23.57-6.66c7.87.26,15.75.51,23.62.75,4.53-.09,6.3-5.38,6.38-8.93-.01-9.45-.09-19.1-.22-28.62-.18-4.49-2.64-9.5-6.99-10.28-7.75-1.01-15.65-2-23.48-2.94-1.67-.13-3.11.36-4.3,1.43-1.73,1.56-2.84,4.32-2.92,7.22.05,10.18.08,20.59.09,30.91.13,4.87,2.86,10.06,7.82,10.46Zm-39.33,4.59h-.06c-9.56-.33-19.12-.68-28.68-1.03h-.11c-8.45-.63-15-8.15-15.24-17.52.03-11.26.14-22.54.3-33.61v-.09c.21-4.68,2.17-9.02,5.37-11.91,2.86-2.58,6.43-3.82,10.35-3.59h.11c9.37.9,18.93,1.85,28.39,2.85h.11c8.88,1.28,13.74,9.61,13.96,17.19,0,10.64.01,21.2.01,31.76-.21,7.75-5.35,15.92-14.47,15.94h-.05Zm-28.46-6.93c9.52.35,19.04.69,28.56,1.02,5.41-.04,8.38-5.11,8.52-10.11,0-10.47,0-21.03-.01-31.59-.14-5.01-3.22-10.57-8.83-11.4-9.41-.99-18.9-1.94-28.22-2.83-2.27-.11-4.35.6-6,2.08-2.03,1.83-3.27,4.65-3.42,7.74-.17,11.04-.27,22.28-.3,33.41.14,5.27,3.59,11.19,9.71,11.68Z"/>
  <path class="cls-3" d="m542.99,280.24h-.08c-4.69-.12-9.38-.23-14.07-.35h-.14c-6.33-.51-8.7-7.48-8.81-13.3,0-8.3-.08-16.68-.26-24.96v-.05c0-1.66.25-7.29,3.62-10.31,1.51-1.35,3.41-1.95,5.49-1.71l.14.02c4.71.78,9.42,1.57,14.12,2.39l.14.03c6.81,1.56,7.7,10.37,7.82,13.03.18,7.67.26,15.4.24,23.04-.12,5.53-2.31,11.99-8.12,12.18h-.08Zm-13.93-5.71c4.63.12,9.26.23,13.89.35,1.99-.14,2.82-4.28,2.88-6.88.02-7.55-.06-15.23-.23-22.81-.11-2.63-1-7.3-3.6-7.97-4.63-.8-9.27-1.59-13.91-2.35-.53-.05-.9.06-1.26.39-1.21,1.08-1.84,3.98-1.84,6.29.18,8.31.27,16.72.26,25,.06,3.04,1.12,7.71,3.82,7.99Z"/>
  <path class="cls-3" d="m318.4,276.69h-.16c-10.36-.41-20.71-.83-31.07-1.27h-.11c-8.75-.7-15.47-8.53-15.63-18.23.14-11.77.47-23.52.99-35v-.09c.72-9.51,7.8-16.52,16.51-16.3h.11c9.85.6,20.13,1.31,30.57,2.1h.1c8.64.97,14.96,8.51,15.02,17.93-.25,11.28-.4,22.7-.45,34.03-.32,9.64-7.14,16.83-15.88,16.83Zm-30.93-7.17c10.31.43,20.63.85,30.94,1.26,6.23,0,9.77-5.68,9.95-11.03.05-11.28.21-22.73.45-33.96-.04-5.37-3.39-11.27-9.72-12-10.37-.78-20.59-1.48-30.37-2.08-6.23-.15-9.99,5.45-10.41,10.79-.52,11.41-.85,23.07-.99,34.67.1,5.69,3.61,11.8,10.13,12.34Zm217.37-11.75h-.07c-6.19-.17-12.37-.35-18.56-.53h-.13c-7.4-.56-10.94-8.12-11.1-14.9-.01-9.4-.09-18.78-.24-27.96v-.07c.02-3.5,1.17-8.24,4.31-11.07,1.95-1.76,4.4-2.54,7.08-2.28l.13.02c6.22.89,12.46,1.82,18.56,2.74l.13.02c4.3.86,9.46,5.2,9.86,14.6.18,8.57.27,17.25.27,25.84-.14,6.48-3.38,13.44-10.16,13.58h-.07Zm-18.38-6.43c6.13.18,12.26.35,18.39.52,3.4-.13,4.27-5.62,4.31-7.73,0-8.49-.09-17.12-.26-25.59-.12-2.72-1.33-8.18-5.05-8.97-6.03-.92-12.21-1.83-18.36-2.71-1-.09-1.79.17-2.49.8-1.38,1.24-2.33,3.93-2.35,6.68.15,9.19.23,18.6.24,27.95.08,3.43,1.64,8.72,5.57,9.07Z"/>
  <path class="cls-3" d="m576.23,248.42h-.08c-3.51-.07-7.03-.15-10.54-.23h-.14c-4.18-.37-6.73-4.74-6.81-11.72.02-7.44-.05-14.91-.22-22.23v-.04c-.01-2.03.24-7.02,2.94-9.42,1.16-1.03,2.6-1.47,4.18-1.27l.14.02c3.54.66,7.07,1.33,10.6,2.02l.14.03c3.65.96,5.8,5.04,6.05,11.49.16,6.81.21,13.71.18,20.55-.15,6.68-2.46,10.6-6.36,10.78h-.08Zm-10.43-4.81c3.45.08,6.89.15,10.34.22,1.02-.13,1.87-2.85,1.95-6.26.04-6.76-.02-13.62-.17-20.35-.15-3.93-1.16-6.75-2.58-7.18-3.46-.68-6.93-1.34-10.39-1.98-.3-.03-.4.05-.52.16-.83.74-1.42,3.24-1.41,5.95.17,7.35.24,14.85.22,22.29.04,3.4.94,6.95,2.57,7.16Z"/>
  <path class="cls-3" d="m393.17,204.86c-.4,0-.8-.02-1.21-.05h-.1c-9.38-1.17-18.84-2.27-28.11-3.28h-.1c-8.22-1.2-14.4-8.7-14.38-17.47.33-10.24.73-20.36,1.18-30.15v-.1c.32-4,2.11-7.53,5.05-9.94,2.89-2.37,6.61-3.43,10.49-2.97h.1c8.9,1.36,17.98,2.86,27,4.46l.1.02c7.43,1.57,13,8.44,13.26,16.32.02,9.71.04,19.33.05,28.95-.12,4.4-1.88,8.38-4.83,11.01-2.34,2.08-5.32,3.2-8.5,3.2Zm-.64-5.94c2,.16,3.8-.41,5.21-1.67,1.74-1.55,2.77-3.98,2.85-6.67-.01-9.53-.03-19.15-.05-28.77-.16-5.09-3.75-9.59-8.53-10.63-8.93-1.59-17.93-3.07-26.75-4.41-2.25-.25-4.38.34-6,1.67-1.67,1.37-2.7,3.43-2.9,5.79-.45,9.75-.84,19.82-1.18,29.93-.01,5.73,3.97,10.7,9.27,11.49,9.26,1.01,18.7,2.11,28.08,3.26Zm62.76-19.76c-.43,0-.87-.03-1.32-.08l-.11-.02c-7.73-1.2-15.63-2.38-23.48-3.5l-.11-.02c-8.19-1.49-12.76-9.5-13.03-16.65-.11-9.73-.23-19.26-.38-28.41v-.09c.05-4,1.66-7.59,4.41-9.86,2.46-2.04,5.67-2.83,9.02-2.23l.1.02c7.64,1.64,15.35,3.38,22.91,5.17l.1.03c5.38,1.48,11.1,6.87,11.74,15.58.41,8.75.76,17.75,1.06,26.81.03,4.32-1.55,8.3-4.24,10.7-1.86,1.67-4.14,2.53-6.66,2.53Zm-.59-5.95c1.32.14,2.4-.18,3.3-.99,1.4-1.26,2.29-3.68,2.28-6.19-.29-8.96-.65-17.93-1.05-26.57-.29-3.98-2.72-8.92-7.36-10.22-7.48-1.77-15.11-3.5-22.68-5.12-1.64-.28-3.04.05-4.17.97-1.38,1.14-2.22,3.13-2.26,5.34.14,9.14.27,18.67.38,28.31.18,4.69,3.03,10.01,8.13,10.97,7.84,1.12,15.72,2.3,23.43,3.5Z"/>
  <path class="cls-3" d="m542.73,206.29c-.35,0-.72-.03-1.09-.09l-.14-.03c-4.57-.97-9.3-1.95-14.07-2.91l-.13-.03c-5.93-1.5-8.5-8.14-8.92-13.86-.43-7.99-.95-15.92-1.55-23.64v-.05c-.18-3.11.56-7.18,3.17-9.29,1.11-.9,3.02-1.81,5.77-1.06l.11.03c4.77,1.53,9.51,3.1,14.08,4.66l.11.04c6.38,2.5,7.72,10.63,7.98,13.06.63,7.29,1.18,14.69,1.62,22.04.07,1.61.04,6.91-3.01,9.62-1.11.99-2.46,1.5-3.95,1.5Zm-.2-5.37c.38.05.49-.05.58-.13.78-.69,1.32-3.05,1.22-5.35-.44-7.25-.98-14.6-1.6-21.79-.34-3.22-1.75-7.43-4.55-8.57-4.5-1.54-9.17-3.08-13.86-4.59-.65-.17-.84,0-.94.07-.77.62-1.3,2.77-1.19,4.79.6,7.75,1.12,15.72,1.56,23.69.21,2.89,1.48,8.09,4.83,9,4.73.95,9.43,1.93,13.97,2.89Z"/>
  <path class="cls-3" d="m320.73,197.3c-.27,0-.54,0-.81-.02h-.1c-10.28-.87-20.42-1.62-30.14-2.25h-.1c-8.6-.87-14.64-8.37-14.06-17.46v-.09c1-10.46,2.18-20.76,3.49-30.62v-.09c1.38-8.24,8.35-14.01,16.54-13.73h.1c9.2.64,18.81,1.47,28.54,2.49h.1c8.07,1.12,13.93,8.14,13.65,16.34v.09c-.65,9.75-1.23,19.92-1.71,30.23-.68,8.78-7.28,15.1-15.5,15.1Zm-.46-5.92c5.31.24,9.62-3.86,10.06-9.55.48-10.24,1.06-20.44,1.71-30.21.16-5.21-3.41-9.5-8.5-10.22-9.63-1-19.13-1.83-28.23-2.45-5.17-.18-9.54,3.51-10.43,8.75-1.3,9.76-2.46,19.95-3.45,30.3-.35,5.8,3.38,10.58,8.7,11.14,9.73.63,19.87,1.38,30.15,2.24Zm184.5-26.72c-.41,0-.82-.03-1.24-.09l-.13-.02c-6.01-1.11-12.22-2.22-18.46-3.3l-.12-.02c-7.08-1.54-10.66-8.86-11.07-15.43-.34-8.89-.75-17.64-1.22-26.09v-.07c-.13-4.03,1.31-7.68,3.83-9.75,1.42-1.16,3.84-2.38,7.35-1.58l.11.03c6.14,1.66,12.28,3.38,18.26,5.11l.11.03c6.49,2.16,9.39,9.16,9.9,14.49.59,8.03,1.09,16.22,1.51,24.41.1,3.35-.82,7.77-3.65,10.32-1.45,1.3-3.22,1.97-5.18,1.97Zm-.38-5.94c.87.11,1.3-.16,1.61-.44,1.05-.94,1.76-3.33,1.69-5.68-.41-8.08-.92-16.23-1.49-24.15-.36-3.76-2.31-8.15-5.83-9.36-5.9-1.71-11.97-3.41-18.03-5.05-1.24-.27-1.87.1-2.23.4-1.06.87-1.74,2.87-1.68,4.97.47,8.47.87,17.25,1.22,26.08.26,4.26,2.54,9.07,6.37,9.94,6.21,1.08,12.4,2.18,18.38,3.28Z"/>
  <path class="cls-3" d="m581.63,155.12c-.29,0-.59-.03-.89-.08l-.14-.03c-3.52-.85-7.05-1.68-10.58-2.49l-.13-.03c-5.56-1.62-6.74-9.11-6.98-12.26-.44-7.19-.98-14.34-1.6-21.3v-.04c-.11-1.47-.24-6.43,2.51-8.61,1.23-.97,2.81-1.21,4.46-.69l.11.04c3.63,1.35,7.22,2.73,10.7,4.09l.11.05c4.35,1.97,5.82,7.39,6.28,11.59.61,6.56,1.13,13.22,1.56,19.84.11,2.41-.05,6.71-2.41,8.79-.84.74-1.88,1.13-3.01,1.13Zm-.04-4.58s.07,0,.07,0c.39-.3.94-2.4.81-5.08-.42-6.54-.94-13.16-1.54-19.64-.45-4.07-1.78-7.01-3.56-7.86-3.41-1.34-6.94-2.69-10.49-4.01-.18-.05-.26-.04-.26-.04-.36.28-.89,2.3-.73,4.64.62,7,1.17,14.19,1.61,21.37.27,3.47,1.37,7.45,3.64,8.16,3.49.8,6.98,1.62,10.46,2.46Z"/>
  <path class="cls-3" d="m398.97,110.53c-.71,0-1.43-.06-2.15-.17-8.91-1.68-17.79-3.24-26.5-4.63-7.96-1.52-13.49-8.06-13.25-15.57v-.1c.56-8.18,1.16-16.13,1.79-23.65v-.11c.38-3,1.83-5.54,4.19-7.34,2.81-2.14,6.65-3.04,10.56-2.46,8.21,1.44,16.53,3.07,24.83,4.86,7.08,1.73,12.15,7.51,12.41,14.06v.1c.03,7.8.06,15.61.08,23.41v.1c-.11,3.54-1.58,6.67-4.15,8.8-2.13,1.77-4.9,2.71-7.82,2.71Zm-35.99-20.13c-.12,4.49,3.47,8.58,8.36,9.51,8.67,1.38,17.61,2.95,26.49,4.62,1.95.31,3.82-.14,5.18-1.27,1.25-1.04,1.94-2.55,2.01-4.38-.02-7.77-.05-15.53-.08-23.3-.2-4.56-4.19-7.59-7.83-8.48-8.14-1.75-16.39-3.37-24.44-4.78-2.23-.32-4.52.17-6.04,1.33-1.07.82-1.71,1.93-1.89,3.31-.63,7.45-1.23,15.33-1.77,23.43Zm104.48-2.11c-.77,0-1.57-.09-2.38-.27l-.1-.02c-7.43-1.9-15.01-3.74-22.53-5.48l-.09-.02c-6.93-1.84-12.05-8.19-12.44-15.44v-.09c-.19-8.01-.39-15.82-.6-23.22v-.1c.02-3.14,1.28-5.85,3.55-7.62,2.46-1.93,5.85-2.55,9.3-1.72,7.25,1.98,14.51,4.08,21.66,6.28,6.14,2.08,10.69,7.69,11.42,13.99.62,7.35,1.2,14.94,1.72,22.64.15,3.7-1.17,6.94-3.6,8.98-1.65,1.38-3.7,2.1-5.91,2.1Zm-1.06-6.03c1.3.28,2.37.07,3.18-.6,1-.84,1.56-2.38,1.49-4.12-.51-7.59-1.09-15.14-1.7-22.37-.45-3.92-3.48-7.64-7.35-8.95-7.01-2.15-14.21-4.24-21.32-6.18-1.57-.38-3.17-.14-4.18.65-.83.65-1.26,1.64-1.28,2.95.21,7.38.41,15.16.59,23.15.27,4.62,3.62,8.81,8,9.99,7.53,1.74,15.12,3.59,22.56,5.49Z"/>
  <path class="cls-3" d="m542.64,131.88c-.66,0-1.34-.11-2.04-.34l-.11-.04c-4.54-1.69-9.23-3.38-13.96-5.03l-.1-.04c-5.59-2.21-8.32-8.4-9-13.47-.81-7.1-1.69-14.05-2.62-20.73v-.06c-.31-2.57.21-5.97,2.59-7.8.96-.74,3.02-1.79,6.07-.59l.09.04c4.67,2.03,9.35,4.13,13.91,6.24l.08.04c4.09,2.07,7.13,6.67,8.14,12.32,1.01,6.42,1.95,13.04,2.81,19.72.11,1.05.49,6.12-2.55,8.59-.94.77-2.08,1.16-3.3,1.16Zm-.34-5.42c.16.05.26.06.31.06.36-.39.75-2.01.57-3.77-.84-6.57-1.77-13.14-2.77-19.46-.51-2.88-2.2-6.84-5.23-8.41-4.49-2.08-9.1-4.15-13.7-6.14-.49-.19-.76-.17-.8-.14-.28.21-.73,1.31-.55,2.91.94,6.72,1.83,13.71,2.63,20.79.48,3.59,2.41,7.83,5.6,9.12,4.72,1.65,9.41,3.34,13.94,5.03Z"/>
  <path class="cls-3" d="m326.31,127.81c-.43,0-.87-.02-1.31-.05-9.54-1.02-18.87-1.83-27.81-2.42-4.07-.39-7.65-2.29-9.92-5.22-2.08-2.68-2.92-6.07-2.36-9.53l.02-.1c1.6-8.19,3.27-15.76,5.09-23.14l.03-.11c1.78-6.18,8.02-10.43,15.26-10.43.11,0,.22,0,.32,0,8.29.38,16.88,1.02,25.59,1.9,6.44.83,12.85,5.78,12.22,13.33v.11c-.93,7.53-1.77,15.21-2.57,23.47v.1c-.95,7.08-7.09,12.09-14.57,12.09Zm-35.56-16.25c-.28,1.84.14,3.55,1.21,4.94,1.27,1.64,3.36,2.72,5.72,2.95,8.93.59,18.34,1.41,27.87,2.43,4.04.31,8.78-1.99,9.45-6.88.8-8.26,1.64-15.95,2.56-23.5.29-3.9-3.3-6.43-7.01-6.91-8.52-.86-16.99-1.5-25.1-1.87-3.87-.06-8.48,2.01-9.69,6.1-1.79,7.25-3.43,14.69-5.01,22.74Z"/>
  <path class="cls-3" d="m532.7,61.68c-.71,0-1.45-.1-2.21-.31l-.1-.03c-5.92-1.86-11.99-3.7-18.04-5.48l-.09-.03c-6.57-2.17-10.11-8.84-10.71-14.48-.61-7.65-1.28-15.09-1.99-22.2v-.07c-.23-3.19.86-5.98,2.99-7.66,2.01-1.58,4.65-1.95,7.44-1.06,5.99,2.14,11.93,4.34,17.72,6.59,5.03,2.13,8.83,7.3,9.75,13.19.91,6.93,1.76,14.06,2.53,21.27.23,2.85-.44,6.59-3.02,8.74-1.21,1-2.68,1.51-4.28,1.51Zm-.75-5.46c1.07.28,1.46-.05,1.61-.17.79-.65,1.25-2.38,1.11-4.11-.76-7.1-1.6-14.19-2.5-21.01-.63-3.98-3.23-7.62-6.46-9-5.67-2.19-11.55-4.38-17.42-6.48-.66-.21-1.69-.37-2.41.2-.69.54-1.05,1.67-.96,3.03.71,7.13,1.38,14.59,1.98,22.19.39,3.72,2.76,8.44,7.01,9.87,6.06,1.77,12.13,3.61,18.05,5.48Z"/>
  <path class="cls-3" d="m590.7,50.21c-.51,0-1.09-.09-1.73-.33l-.11-.04c-3.44-1.48-7.02-2.97-10.63-4.44l-.09-.04c-5.24-2.41-6.78-9.24-7.19-12.07-.85-6.51-1.79-12.94-2.8-19.15v-.04c-.13-.89-.64-5.43,2.04-7.43.75-.56,2.36-1.34,4.73-.25,3.72,1.9,7.35,3.8,10.85,5.68,4.46,2.62,6.06,8.11,6.63,11.16,1.01,5.96,1.94,12.04,2.77,18.13.17,1.4.51,6-2.01,7.98-.46.36-1.29.84-2.45.84Zm-10.69-9.04c3.53,1.44,7.03,2.9,10.41,4.34.24-.68.37-2.15.2-3.54-.82-6-1.75-12.03-2.74-17.91-.71-3.78-2.34-6.78-4.37-7.97-3.39-1.83-6.98-3.71-10.6-5.55-.02,0-.04-.02-.06-.03-.21.52-.35,1.69-.18,2.91,1.01,6.24,1.95,12.71,2.81,19.22.49,3.3,1.94,7.29,4.53,8.52Z"/>
  <path class="cls-1" d="m7.76,274.98c0-2.63.93-4.89,2.8-6.77,1.87-1.88,4.12-2.82,6.76-2.82s4.94.94,6.79,2.82c1.85,1.88,2.77,4.14,2.77,6.77s-.93,4.88-2.8,6.74c-1.87,1.86-4.12,2.79-6.76,2.79s-4.85-.94-6.73-2.82-2.83-4.12-2.83-6.71h0ZM0,303.17v-12.63h25.84v42.18h8.11v12.63H0v-12.63h8.34v-29.55H0Z"/>
  <polygon class="cls-2" points="109.64 346.16 95.28 303.17 88.33 303.17 88.33 290.53 118.11 290.53 118.11 303.17 112.16 303.17 118.92 323.4 129.95 290.53 144.57 290.53 155.42 323.45 162.12 303.17 156 303.17 156 290.53 182.42 290.53 182.42 303.17 175.59 303.17 161.39 346.16 146.24 346.16 135.49 313.93 124.92 346.16 109.64 346.16 109.64 346.16"/>
  <path class="cls-1" d="m224.65,346.62c-8.07,0-14.89-2.56-20.45-7.67-5.56-5.11-8.34-12.12-8.34-21.02s2.78-15.91,8.34-21.02c5.56-5.11,12.38-7.67,20.45-7.67s14.94,2.56,20.48,7.67c5.54,5.11,8.32,12.12,8.32,21.02s-2.74,15.77-8.23,20.93c-5.49,5.17-12.34,7.75-20.57,7.75h0Zm-.06-13.56c3.23,0,5.86-1.25,7.87-3.74,2.01-2.49,3.02-6.4,3.02-11.73,0-4.68-.98-8.34-2.93-10.96-1.96-2.62-4.61-3.94-7.96-3.94-7.19,0-10.78,5.21-10.78,15.63,0,4.27.89,7.79,2.68,10.56,1.79,2.78,4.49,4.16,8.1,4.16h0Z"/>
  <path class="cls-2" d="m311.09,332.72v12.63h-38.47v-12.63h10.08v-29.55h-9.5v-12.63h25.49v13.91c.98-3.98,3.22-7.43,6.71-10.35,3.49-2.91,7.61-4.37,12.36-4.37.79,0,1.74.02,2.83.06v16.52c-4.41,0-8,.49-10.79,1.47-2.79.98-5.08,3.13-6.89,6.45-1.81,3.32-2.71,7.24-2.71,11.77v6.73h10.89Z"/>
  <polygon class="cls-2" points="335.68 345.35 335.68 332.72 343.45 332.72 355.26 318.56 343.45 303.17 335.68 303.17 335.68 290.53 356.55 290.53 366.38 305.54 377.17 290.53 393.63 290.53 393.63 303.17 386.33 303.17 375.25 316.36 388.18 332.72 395.48 332.72 395.48 345.35 374.52 345.35 363.9 329.95 352.49 345.35 335.68 345.35 335.68 345.35"/>
  <path class="cls-2" d="m416.33,345.35v-18.89h12.75c.11,2.57,1.3,4.63,3.57,6.16,2.27,1.53,5.06,2.3,8.39,2.3,2.87,0,5.11-.5,6.72-1.49,1.61-1,2.41-2.26,2.41-3.81,0-1.43-.74-2.54-2.21-3.33-1.47-.79-4.36-1.54-8.65-2.27-8.86-1.44-15.26-3.62-19.18-6.55-3.92-2.92-5.88-6.8-5.88-11.63,0-4.53,1.85-8.35,5.54-11.46,3.69-3.11,8.59-4.67,14.69-4.67,4.93,0,9.55.92,13.84,2.77v-1.96h12.52v15.88h-12.52c-1.13-3.79-5.13-5.68-12-5.68-5.06,0-7.59,1.4-7.59,4.21,0,1.06.52,1.87,1.56,2.42,1.04.55,3.69,1.2,7.96,1.94,6.76,1.15,11.83,2.31,15.19,3.48,3.36,1.17,6.05,3.11,8.07,5.81,2.02,2.7,3.03,5.94,3.03,9.72,0,5.37-1.92,9.76-5.75,13.18-3.83,3.42-9.26,5.13-16.29,5.13-6.53,0-11.01-1.35-13.42-4.04v2.76h-12.75Z"/>
  <path class="cls-3" d="m51.63,311.41c0-1.97,1.6-3.57,3.57-3.57h11.86c1.97,0,3.57,1.6,3.57,3.57v11.86c0,1.97-1.6,3.57-3.57,3.57h-11.86c-1.97,0-3.57-1.6-3.57-3.57v-11.86h0Z"/>
  <g>
    <path class="cls-2" d="m5.96,382.46c-.78,0-1.43-.05-1.94-.16-.52-.11-.94-.23-1.27-.36-.33-.13-.58-.33-.74-.6-.17-.28-.3-.49-.38-.64v1.58H0v-13h1.62v4.17c.07-.12.2-.25.37-.38.17-.14.42-.27.75-.39.33-.12.75-.22,1.28-.3.52-.08,1.16-.12,1.94-.12,1.08,0,2,.08,2.76.24.76.16,1.37.44,1.84.83s.82.92,1.03,1.57.32,1.48.32,2.47-.11,1.81-.32,2.47-.56,1.18-1.03,1.56-1.09.66-1.84.82-1.68.24-2.76.24Zm0-1.35c.63,0,1.18-.02,1.64-.06.46-.04.85-.11,1.17-.21.32-.1.58-.24.78-.42.2-.18.36-.41.47-.68.11-.28.18-.61.22-1,.04-.39.05-.85.05-1.37s-.02-.98-.05-1.37c-.04-.39-.11-.73-.22-1-.11-.28-.27-.51-.47-.69-.2-.18-.46-.32-.78-.43s-.71-.17-1.17-.21c-.46-.04-1.01-.06-1.64-.06-.54,0-1.02.01-1.45.04-.42.02-.79.08-1.12.17-.32.09-.59.22-.82.39-.22.17-.4.39-.55.67-.14.28-.24.62-.31,1.04-.07.41-.1.91-.1,1.48s.03,1.06.1,1.46c.06.4.17.74.31,1.02.14.27.32.49.55.66.22.16.5.29.82.37.32.08.7.14,1.12.16.43.02.91.04,1.45.04Z"/>
    <path class="cls-2" d="m13.27,372.53h1.9l4.33,8.66,4.1-8.63h1.91l-4.88,9.75-.27.54c-.13.27-.26.52-.39.76-.13.24-.29.46-.47.65-.18.2-.39.37-.63.53-.24.16-.53.29-.87.39-.34.11-.74.19-1.2.25s-1.01.09-1.64.09v-1.35c.54,0,1-.02,1.37-.06.37-.04.68-.1.93-.19.25-.08.45-.18.61-.29s.28-.24.38-.38c.1-.14.19-.29.27-.45s.16-.33.25-.52h-.56s-5.15-9.75-5.15-9.75Z"/>
  </g>
  <g>
    <path class="cls-4" d="m71.08,382.11v3.21c0,3.33-1.03,6.13-3.08,8.32-2.07,2.19-4.8,3.31-8.13,3.31h-7.6l-8.02-.07.09-5.15h15.57c1.77,0,3.17-.67,4.27-2.03,1.12-1.37,1.68-2.96,1.68-4.73v-2.15c0-1.82-.54-3.36-1.59-4.59-1.07-1.23-2.43-1.82-4.2-1.82h-15.03c-1.7,0-3.19.61-4.4,1.8-1.21,1.21-1.8,2.68-1.8,4.4v22.22h-5.24v-21.73c0-3.24,1.1-6.06,3.26-8.39,2.17-2.35,4.92-3.54,8.16-3.54h14.99c3.22,0,5.92,1.02,7.97,3.03,2.07,2.01,3.1,4.68,3.1,7.92Z"/>
    <path class="cls-4" d="m110.37,382.32v22.3h-5.22v-18.74h-21.45c-2,0-3.5.65-4.57,1.96-1.09,1.33-1.63,3.05-1.63,5.1,0,1.73.61,3.24,1.82,4.52,1.23,1.3,2.64,1.93,4.38,1.93h15.89v5.24h-15.89c-3.54,0-6.39-1.24-8.49-3.7-1.94-2.29-2.94-5.25-2.94-8.81,0-3.26,1.12-6.01,3.33-8.2,2.21-2.17,4.96-3.28,8.16-3.28h21.31c-.35-1.31-1.02-2.42-1.98-3.29-1.05-.95-2.31-1.44-3.75-1.44h-21.63v-5.24h21.47c3.24,0,5.94,1.14,8.04,3.4,2.1,2.24,3.15,5.01,3.15,8.25Z"/>
    <path class="cls-4" d="m146.53,399.38v5.24h-21.54c-3.24,0-5.95-1.14-8.06-3.4-2.08-2.22-3.15-5.01-3.15-8.25v-22.29h5.24v21.94c0,1.77.56,3.36,1.66,4.73,1.1,1.37,2.49,2.03,4.26,2.03h21.59Z"/>
    <path class="cls-4" d="m185.68,383.11v21.51h-5.24v-22c0-1.72-.61-3.19-1.8-4.4-1.23-1.23-2.66-1.82-4.4-1.82h-14.97c-1.7,0-3.17.61-4.38,1.82-1.21,1.19-1.82,2.68-1.82,4.4v22h-5.22v-22c0-3.24,1.1-5.99,3.28-8.18,2.17-2.17,4.9-3.28,8.14-3.28h14.97c3.26,0,5.99,1.19,8.18,3.54,2.15,2.33,3.26,5.17,3.26,8.41Z"/>
    <path class="cls-4" d="m227.25,382.32v22.3h-5.22v-18.74h-21.45c-2,0-3.5.65-4.57,1.96-1.09,1.33-1.63,3.05-1.63,5.1,0,1.73.61,3.26,1.82,4.52,1.21,1.3,2.64,1.93,4.38,1.93h15.89v5.24h-15.89c-3.54,0-6.39-1.24-8.49-3.7-1.94-2.29-2.94-5.25-2.94-8.81,0-3.26,1.12-6.01,3.33-8.2,2.21-2.17,4.94-3.28,8.14-3.28h21.33c-.35-1.31-1.02-2.42-1.98-3.29-1.05-.95-2.31-1.44-3.75-1.44h-21.63v-5.24h21.47c3.24,0,5.94,1.14,8.04,3.4,2.1,2.24,3.15,5.01,3.15,8.25Z"/>
    <path class="cls-4" d="m255.55,394.74l12.73,5.74-.07,3.99-4.89-.04-22.63-10.19v-4.69h16.45c4.68,0,6.95-2.28,6.95-6.99,0-2.01-.6-3.57-1.8-4.62-1.19-1.07-2.84-1.61-4.89-1.61h-14.13c-1.7,0-3.19.61-4.38,1.8-1.23,1.23-1.82,2.66-1.82,4.4v21.94h-5.22v-21.38c0-3.24,1.09-6.08,3.26-8.42,2.17-2.36,4.92-3.57,8.16-3.57h14.97c3.54,0,6.32,1.23,8.28,3.61,1.86,2.19,2.8,5.13,2.8,8.72,0,3.35-1.12,6.09-3.31,8.2-2.19,2.1-5.01,3.17-8.37,3.17-.23,0-.93-.02-2.1-.05Z"/>
  </g>
</svg>